<?xml version="1.0" encoding="utf-8"?>
<!-- Generator: Adobe Illustrator 21.1.0, SVG Export Plug-In . SVG Version: 6.00 Build 0)  -->
<svg version="1.1" id="Calque_1" xmlns="http://www.w3.org/2000/svg" xmlns:xlink="http://www.w3.org/1999/xlink" x="0px" y="0px"
	 width="197px" height="69px" viewBox="0 0 197 69" style="enable-background:new 0 0 197 69;" xml:space="preserve">
<style type="text/css">
	.st0{fill:#022E66;}
</style>
<g>
	<g>
		<path class="st0" d="M195,65.6H3.5v-25l19.1-12.8c0.5-0.3,0.8-0.9,0.8-1.4V12.1h6.5v7.6c0,0.5,0.2,0.9,0.5,1.2
			c0.6,0.6,1.5,0.7,2.2,0.2L58.3,3.8L104,31.2c0.8,0.5,1.9,0.2,2.4-0.6c0.5-0.8,0.2-1.9-0.6-2.4l-46.6-28c-0.6-0.3-1.3-0.3-1.9,0
			L33.2,16.5v-6.1c0-1-0.8-1.7-1.7-1.7h-9.9c-1,0-1.7,0.8-1.7,1.7v15.1L0.8,38.2C0.3,38.6,0,39.1,0,39.7v27.6c0,1,0.8,1.7,1.7,1.7
			H195c1,0,1.7-0.8,1.7-1.7C196.8,66.3,196,65.6,195,65.6z M108.7,55.3c0.6,0.8,1.3,1.5,2.3,2c0.9,0.5,2,0.8,3.3,0.8
			c0.9,0,1.7-0.1,2.7-0.4c0.9-0.2,1.7-0.6,2.3-1.2c0.2-0.2,0.3-0.4,0.3-0.8c0-0.3-0.1-0.5-0.2-0.7c-0.1-0.2-0.3-0.3-0.6-0.3
			c-0.2,0-0.5,0.1-0.7,0.2c-0.7,0.4-1.4,0.8-1.9,1c-0.5,0.2-1.2,0.3-2,0.3c-1.2,0-2.2-0.4-3-1.2c-0.7-0.8-1.3-1.7-1.5-2.7
			c-0.3-1-0.4-2-0.4-2.9c0-1,0.2-2,0.6-3c0.4-1,0.9-1.8,1.7-2.5c0.8-0.7,1.8-1,3-1c0.5,0,1,0.1,1.4,0.2c0.4,0.1,0.7,0.3,1,0.6
			c0.3,0.2,0.6,0.4,0.9,0.7c0.1,0.1,0.3,0.1,0.5,0.2c0.2,0,0.4-0.1,0.6-0.3c0.2-0.2,0.2-0.4,0.2-0.6c0-0.3-0.1-0.6-0.3-0.8
			c-0.3-0.4-0.7-0.7-1.2-1c-0.5-0.3-1.1-0.5-1.6-0.6c-0.6-0.1-1.2-0.2-1.7-0.2c-1.2,0-2.2,0.2-3.2,0.7c-0.9,0.5-1.7,1.1-2.3,1.9
			c-0.6,0.8-1.1,1.7-1.4,2.8c-0.3,1-0.5,2.1-0.5,3.3c0,0.9,0.1,1.8,0.4,2.7C107.7,53.6,108.1,54.5,108.7,55.3z M123.5,57.3
			c0.8,0.6,1.8,0.9,2.9,0.9c1.1,0,2.1-0.3,2.9-0.9c0.8-0.6,1.5-1.3,1.9-2.3c0.4-1,0.7-2,0.7-3.2c0-1.1-0.2-2.2-0.7-3.1
			c-0.4-1-1.1-1.7-1.9-2.3c-0.8-0.6-1.8-0.9-2.9-0.9c-1,0-2,0.3-2.8,0.8c-0.8,0.5-1.5,1.3-2,2.3c-0.5,1-0.7,2.1-0.7,3.3
			c0,1.1,0.2,2.2,0.7,3.2C122.1,55.9,122.7,56.7,123.5,57.3z M123.4,49.5c0.3-0.7,0.7-1.2,1.2-1.6c0.5-0.4,1.1-0.6,1.9-0.6
			c0.7,0,1.3,0.2,1.9,0.6c0.5,0.4,0.9,1,1.2,1.7c0.3,0.7,0.4,1.5,0.4,2.3c0,0.8-0.2,1.6-0.4,2.3c-0.2,0.7-0.6,1.2-1.1,1.7
			c-0.5,0.4-1.2,0.6-1.9,0.6c-1.2,0-2-0.5-2.6-1.4c-0.5-0.9-0.8-2-0.8-3.2C123,50.9,123.1,50.2,123.4,49.5z M135,58.2
			c0.3,0,0.5-0.1,0.7-0.3c0.2-0.2,0.3-0.5,0.3-0.8v-6.8c0-0.6,0.1-1.2,0.4-1.6c0.3-0.5,0.6-0.8,1.1-1c0.4-0.2,0.9-0.3,1.4-0.3
			c0.8,0,1.4,0.3,2,0.8c0.6,0.5,0.9,1.2,0.9,2.2v6.9c0,0.3,0.1,0.6,0.3,0.7c0.2,0.2,0.4,0.3,0.7,0.3c0.3,0,0.5-0.1,0.7-0.3
			c0.2-0.2,0.3-0.4,0.3-0.7v-6.9c0-1-0.2-1.9-0.6-2.6c-0.4-0.7-0.9-1.2-1.6-1.6c-0.7-0.3-1.4-0.5-2.2-0.5c-0.7,0-1.3,0.1-1.9,0.4
			c-0.6,0.3-1.1,0.7-1.5,1.2l0,0v-0.5c0-0.3-0.1-0.6-0.3-0.8c-0.2-0.2-0.4-0.3-0.7-0.3c-0.3,0-0.5,0.1-0.7,0.3
			c-0.2,0.2-0.3,0.5-0.3,0.8v10.5c0,0.3,0.1,0.6,0.3,0.8C134.5,58.1,134.7,58.2,135,58.2z M150.2,58.2c1,0,1.8-0.2,2.5-0.5
			c0.7-0.3,1.2-0.8,1.5-1.3c0.3-0.5,0.5-1.1,0.5-1.8c0-0.7-0.2-1.3-0.6-1.8c-0.4-0.5-1.1-0.9-2-1.3c-0.2-0.1-0.6-0.2-1.1-0.4
			c-0.5-0.2-1-0.4-1.4-0.5c-0.4-0.2-0.7-0.4-1-0.7c-0.3-0.3-0.5-0.6-0.5-1c0-0.4,0.2-0.8,0.6-1.1c0.4-0.3,0.9-0.4,1.7-0.4
			c0.4,0,0.7,0.1,0.9,0.2c0.2,0.1,0.6,0.3,1.1,0.6c0.5,0.3,0.9,0.5,1.2,0.5c0.3,0,0.5-0.1,0.6-0.3c0.2-0.2,0.3-0.4,0.3-0.6
			c0-0.3-0.2-0.6-0.5-1c-0.3-0.3-0.9-0.6-1.6-0.8c-0.7-0.3-1.4-0.4-2.2-0.4c-0.8,0-1.5,0.2-2.1,0.5c-0.6,0.3-1.1,0.7-1.4,1.2
			c-0.3,0.5-0.5,1.1-0.5,1.7c0,0.7,0.2,1.2,0.5,1.7c0.4,0.4,0.8,0.8,1.3,1c0.5,0.2,1.1,0.5,2,0.9c0.9,0.3,1.5,0.6,1.8,0.8
			c0.6,0.4,0.9,0.8,0.9,1.4c0,0.6-0.3,1-0.8,1.3c-0.5,0.3-1.1,0.4-1.8,0.4c-0.7,0-1.3-0.2-1.7-0.5c-0.1-0.1-0.3-0.2-0.6-0.4
			c-0.3-0.2-0.5-0.4-0.7-0.5c-0.2-0.1-0.4-0.2-0.6-0.2c-0.3,0-0.5,0.1-0.6,0.3c-0.2,0.2-0.3,0.4-0.3,0.6c0.1,0.4,0.2,0.8,0.6,1
			C147.2,57.7,148.6,58.2,150.2,58.2z M156.5,47.4h0.9v9.7c0,0.3,0.1,0.6,0.3,0.8c0.2,0.2,0.4,0.3,0.7,0.3c0.3,0,0.6-0.1,0.8-0.3
			c0.2-0.2,0.3-0.4,0.3-0.7v-9.8h1c0.3,0,0.5-0.1,0.6-0.3c0.2-0.2,0.2-0.4,0.2-0.6c0-0.3-0.1-0.5-0.2-0.7c-0.2-0.2-0.4-0.3-0.7-0.3
			h-0.9v-2.7c0-0.3-0.1-0.6-0.3-0.8c-0.2-0.2-0.5-0.3-0.7-0.3c-0.3,0-0.5,0.1-0.7,0.3c-0.2,0.2-0.3,0.4-0.3,0.7v2.8h-0.9
			c-0.6,0-0.9,0.3-1,0.9c0,0.2,0.1,0.4,0.3,0.6C156,47.3,156.2,47.4,156.5,47.4z M163.4,58.2c0.3,0,0.5-0.1,0.7-0.3
			c0.2-0.2,0.3-0.4,0.3-0.8v-6c0-1.5,0.6-2.5,1.7-3.1c0.1-0.1,0.4-0.2,0.9-0.3c0.5-0.1,0.8-0.3,1-0.4c0.2-0.2,0.4-0.4,0.4-0.8
			c0-0.3-0.1-0.5-0.4-0.8c-0.2-0.2-0.5-0.3-0.8-0.3c-0.5,0-1.1,0.3-1.6,0.7c-0.5,0.4-0.9,0.9-1.2,1.5h0v-1c0-0.3-0.1-0.6-0.3-0.8
			c-0.2-0.2-0.4-0.3-0.7-0.3c-0.3,0-0.5,0.1-0.7,0.3c-0.2,0.2-0.3,0.4-0.3,0.8v10.5c0,0.3,0.1,0.6,0.3,0.8
			C162.9,58.1,163.1,58.2,163.4,58.2z M171.8,57.5c0.7,0.4,1.6,0.7,2.7,0.7c1.1,0,2.1-0.2,2.8-0.7c0.7-0.4,1.3-1,1.6-1.8
			c0.3-0.7,0.5-1.5,0.5-2.4v-6.8c0-0.3-0.1-0.6-0.3-0.8c-0.2-0.2-0.4-0.3-0.7-0.3c-0.3,0-0.5,0.1-0.7,0.3c-0.2,0.2-0.3,0.4-0.3,0.8
			v6.8c0,2.1-1,3.1-2.9,3.1c-0.9,0-1.7-0.3-2.1-0.8c-0.5-0.6-0.7-1.3-0.7-2.3v-6.8c0-0.3-0.1-0.6-0.3-0.8c-0.2-0.2-0.4-0.3-0.7-0.3
			c-0.3,0-0.5,0.1-0.7,0.3c-0.2,0.2-0.3,0.4-0.3,0.8v6.8c0,0.9,0.2,1.7,0.5,2.4C170.5,56.5,171.1,57.1,171.8,57.5z M184.2,57.3
			c0.8,0.5,1.8,0.8,2.9,0.8c0.7,0,1.5-0.1,2.2-0.4c0.7-0.2,1.1-0.7,1.1-1.3c0-0.3-0.1-0.5-0.2-0.6c-0.1-0.2-0.3-0.2-0.5-0.2
			c-0.1,0-0.3,0-0.5,0.1c-0.1,0-0.3,0.1-0.4,0.2c-0.2,0.1-0.4,0.2-0.5,0.2c-0.1,0-0.3,0.1-0.5,0.1c-0.2,0-0.4,0.1-0.6,0.1
			c-0.1,0-0.2,0-0.3,0c-1.2-0.1-2-0.7-2.5-1.6c-0.5-1-0.7-2-0.7-3.1c0-0.7,0.2-1.4,0.5-2.1c0.3-0.7,0.7-1.2,1.2-1.6
			c0.5-0.4,1.2-0.6,1.9-0.6c0.3,0,0.5,0,0.8,0.1c0.3,0.1,0.6,0.2,1,0.3c0.4,0.1,0.6,0.2,0.7,0.2c0.3,0,0.5-0.1,0.7-0.3
			c0.2-0.2,0.3-0.4,0.3-0.6c0-0.1,0-0.3-0.1-0.4c-0.2-0.3-0.6-0.6-1.2-0.8c-0.6-0.2-1.3-0.3-2.2-0.3c-0.9,0-1.8,0.2-2.5,0.6
			c-0.7,0.4-1.3,0.9-1.7,1.5c-0.4,0.6-0.8,1.3-1,2.1c-0.2,0.8-0.3,1.6-0.3,2.5c0,1.1,0.3,2.1,0.7,3
			C182.7,56.1,183.4,56.8,184.2,57.3z M192.2,47.4h0.9v9.7c0,0.3,0.1,0.6,0.3,0.8c0.2,0.2,0.4,0.3,0.7,0.3c0.3,0,0.6-0.1,0.8-0.3
			c0.2-0.2,0.3-0.4,0.3-0.7v-9.8h1c0.3,0,0.5-0.1,0.6-0.3c0.2-0.2,0.2-0.4,0.2-0.6c0-0.3-0.1-0.5-0.2-0.7c-0.2-0.2-0.4-0.3-0.7-0.3
			h-0.9v-2.7c0-0.3-0.1-0.6-0.3-0.8c-0.2-0.2-0.4-0.3-0.7-0.3c-0.3,0-0.5,0.1-0.7,0.3c-0.2,0.2-0.3,0.4-0.3,0.7v2.8h-0.9
			c-0.6,0-0.9,0.3-1,0.9c0,0.2,0.1,0.4,0.3,0.6C191.7,47.3,191.9,47.4,192.2,47.4z M44.9,36.9c-1.5-1-3.3-1.5-5.3-1.5h-5.7
			c-1,0-1.5,0.5-1.5,1.5v19.9c0,0.3,0.1,0.5,0.4,0.8c0.2,0.3,0.6,0.4,1.1,0.4h6c2,0,3.7-0.5,5.2-1.4c1.4-1,2.5-2.3,3.3-4
			c0.7-1.7,1.1-3.7,1.2-5.9c0-2-0.4-3.9-1.2-5.6C47.5,39.3,46.4,37.9,44.9,36.9z M46.5,46.4c0,1.9-0.2,3.4-0.7,4.6
			c-0.5,1.2-1.1,2.2-1.8,2.8c-0.7,0.7-1.5,1.1-2.3,1.3c-0.8,0.2-1.5,0.4-2.1,0.4h-4.4V37.8h4c1.1,0,2.1,0.2,3,0.6
			c0.9,0.4,1.7,1,2.3,1.7c0.6,0.7,1.1,1.6,1.5,2.7C46.3,43.9,46.5,45.1,46.5,46.4z M64.3,35.6c-0.3,0.3-0.4,0.6-0.4,1v16.1
			c0,1.1-0.2,1.9-0.7,2.4c-0.5,0.5-1,0.7-1.8,0.7c-0.6,0-1-0.1-1.3-0.2c-0.3-0.1-0.6-0.2-0.9-0.4c-0.2-0.2-0.5-0.3-0.9-0.6
			c-0.3-0.1-0.5-0.1-0.8-0.1c-0.7,0-1.1,0.4-1.1,1.2c0,0.4,0.3,0.9,0.8,1.2c0.5,0.4,1.2,0.7,2,0.9c0.8,0.2,1.6,0.3,2.3,0.3
			c1.5-0.1,2.7-0.5,3.4-1.2c0.8-0.7,1.2-1.5,1.4-2.4c0.2-0.8,0.3-1.7,0.3-2.5V36.6c0-0.4-0.1-0.8-0.4-1c-0.3-0.3-0.6-0.4-1-0.4
			C64.9,35.2,64.6,35.3,64.3,35.6z M81.4,39c1.1-0.9,2.4-1.4,4.1-1.4c0.7,0,1.4,0.1,1.9,0.3c0.5,0.2,1,0.4,1.4,0.8s0.8,0.6,1.3,0.9
			c0.1,0.1,0.4,0.2,0.7,0.3c0.3,0,0.6-0.2,0.8-0.4c0.2-0.2,0.3-0.5,0.3-0.8c0-0.4-0.1-0.8-0.4-1.1c-0.4-0.5-1-1-1.7-1.3
			s-1.4-0.6-2.2-0.8c-0.8-0.2-1.6-0.3-2.3-0.3c-1.6,0-3.1,0.3-4.3,1c-1.3,0.6-2.3,1.5-3.2,2.6c-0.8,1.1-1.5,2.4-1.9,3.8
			c-0.4,1.4-0.6,2.9-0.6,4.5c0,1.2,0.2,2.4,0.6,3.7c0.4,1.3,1,2.5,1.8,3.6c0.8,1.1,1.8,2,3.1,2.7c1.3,0.7,2.8,1.1,4.5,1.1
			c1.2,0,2.4-0.2,3.6-0.5c1.2-0.3,2.3-0.9,3.1-1.6c0.3-0.2,0.4-0.6,0.4-1c0-0.4-0.1-0.7-0.3-0.9c-0.2-0.2-0.4-0.4-0.8-0.4
			c-0.3,0-0.6,0.1-0.9,0.3c-1,0.6-1.9,1-2.6,1.3c-0.7,0.3-1.6,0.4-2.8,0.4c-1.7-0.1-3-0.6-4-1.6c-1-1-1.7-2.3-2.1-3.7
			c-0.4-1.4-0.6-2.7-0.6-4c0-1.4,0.3-2.7,0.8-4.1C79.6,41,80.3,39.9,81.4,39z"/>
	</g>
</g>
</svg>
