<?xml version="1.0" encoding="UTF-8"?>
<svg xmlns="http://www.w3.org/2000/svg" width="32" height="28" viewBox="0 0 32 28" fill="none">
  <g id="logo-its/symbol" clip-path="url(#clip0_1032_1595)">
    <path id="Vector" d="M0.564697 6.62665C0.564697 3.35999 3.2941 0.65332 6.58821 0.65332C9.88232 0.65332 12.6117 3.35999 12.6117 6.62665C12.6117 9.89332 9.88232 12.6 6.58821 12.6C3.2941 12.6 0.564697 9.89332 0.564697 6.62665Z" fill="#E30613"></path>
    <path id="Vector_2" d="M6.5884 27.8132C5.74134 27.8132 5.08252 27.0666 5.08252 26.2266V16.4266C5.08252 15.4932 5.74134 14.8399 6.5884 14.8399C16.0943 14.8399 16.8472 2.05322 30.4942 2.05322C31.2472 2.05322 32.0001 2.79989 32.0001 3.63989V13.3466C32.0001 14.2799 31.3413 14.9332 30.4942 14.9332C21.1766 15.0266 20.6119 27.8132 6.5884 27.8132Z" fill="#164196"></path>
  </g>
  <defs>
    <clipPath id="clip0_1032_1595">
      <rect width="32" height="28" fill="white"></rect>
    </clipPath>
  </defs>
</svg>
