<?xml version="1.0" encoding="UTF-8"?>
<svg id="Calque_1" data-name="Calque 1" xmlns="http://www.w3.org/2000/svg" version="1.1" viewBox="0 0 510 175">
  <defs>
    <style>
      .cls-1 {
        fill: #000;
        stroke-width: 0px;
      }
    </style>
  </defs>
  <g>
    <path class="cls-1" d="M193.9,16.2c2.9.2,6.8.5,10.5,1.2,5.6,1.2,11.2,2.7,16.3,5.4,3.2,1.7,6.3,3.4,9.3,5.6,4.4,3.2,8,6.8,11,11.2,4.9,6.8,8,14.4,9.7,22.4,2.2,9.7,2.7,19.5,1.2,29.5-1.2,7.3-3.4,14.4-6.8,21-2.2,4.1-4.6,8-7.8,11.5-4.1,4.6-8.8,8-14.1,11.2-4.9,2.9-10.2,4.4-15.8,5.8-9,2.4-18,2.2-27,.7-5.6-1-11.2-2.4-16.3-5.4-3.2-1.7-6.1-3.4-8.8-5.6-4.1-3.2-7.6-6.8-10.7-11-5.1-7.1-8.3-14.6-10.2-23.1-2.4-11.5-2.2-22.9,0-34.6,1-4.9,2.9-9.7,5.1-14.4,2.4-4.6,5.1-8.8,8.5-12.7,3.9-4.4,8.5-7.8,13.4-10.7,5.6-3.2,11.5-4.6,17.5-6.3,5.4-1.2,9.7-1.2,15.1-1.7ZM194.4,18.6c-8,0-17.8,1.9-23.6,5.1-5.4,2.9-10,6.6-13.9,11.2-4.4,5.1-7.6,11-10,17.3s-3.9,13.2-4.4,20c-.7,8-.2,15.8,1.2,23.9,2.2,10.7,6.3,20.7,13.6,29,4.1,4.6,9,8.3,14.6,11.2,4.6,2.4,9.5,3.7,14.6,4.1,10.2.7,20.2-.7,29.2-5.6,5.1-2.7,9.3-6.3,12.9-10.7,4.4-5.4,7.3-11.2,9.7-17.5,1.9-5.6,3.4-11.5,4.1-17.3,1-8.3.5-16.6-1.2-24.8-1.2-6.8-3.2-13.6-6.8-19.7-2.2-3.7-4.6-7.3-7.3-10.2-4.4-5.1-9.7-9-16.1-11.7-5.1-3.2-11.2-4.1-16.8-4.1Z"/>
    <path class="cls-1" d="M43.9,114.1c-.7,4.1-1.7,8-2.4,11.9-.7,5.4.2,10.5,4.6,14.4,1,1,1.9,1.7,2.9,2.7,5.6,4.1,11.7,7.1,18.5,9,8,2.4,16.1,2.7,23.9.7,4.6-1,9-2.7,12.9-5.4,6.6-4.6,9.7-11,10.7-18.8.7-7.6-1.7-14.4-6.3-20.2-3.7-4.9-8.3-8.5-13.6-11.2-4.1-1.9-8-4.1-12.2-6.1-3.7-1.9-7.6-3.7-11.2-5.6-3.4-1.7-7.1-3.4-10.5-5.6-2.9-1.7-5.6-3.4-8.3-5.6-3.2-2.7-6.3-5.4-8.3-9-5.6-9.5-6.8-19.5-3.2-30,1.7-4.6,4.6-8.3,8.5-11.5,3.4-2.7,7.3-4.4,11.5-5.8,9.7-3.2,19.7-3.2,29.7-1,4.6,1,8.8,3.4,13.2,5.6,1.7.7,3.2,2.2,4.6,3.4,7.1,5.8,11.5,13.2,13.6,21.9.5,2.2.7,4.6,1.2,6.8-2.2,1-9,1-11.5.2.7-2.7,1.2-5.4,1.9-8.3,1-4.4,1-8.8-.7-12.9-1-2.7-2.7-4.6-5.1-6.1-2.4-1.7-4.9-2.9-7.3-4.1-12.4-6.6-25.3-7.1-38.5-3.2-4.1,1.2-7.8,3.7-10.5,6.8-5.4,6.8-6.8,14.4-4.6,22.7,1.2,4.4,3.4,8,6.8,11.2,2.2,2.2,4.6,4.1,7.1,6.1,2.2,1.5,4.4,2.9,6.8,4.1,4.9,2.4,9.7,4.6,14.6,7.1,4.1,1.9,8.3,3.9,12.4,6.1,3.2,1.7,6.3,3.4,9,5.4,4.1,2.9,8,6.1,11,10,4.6,6.1,6.8,12.9,7.1,20.5.2,7.6-1.5,14.4-5.8,20.7-.5.5-1,1.2-1.5,1.7-3.2,3.7-7.3,6.3-11.7,8.5-8,3.9-16.6,4.6-25.3,4.4-5.6,0-11.2-.7-16.3-3.2-3.7-1.7-7.3-3.7-10.7-5.8-4.1-2.9-7.8-6.6-10.7-11-4.1-6.1-6.8-12.9-8-20-.2-1.7-.2-1.9,1.5-1.9,3.9.2,7.1.2,10.2.2Z"/>
    <path class="cls-1" d="M237.3,156.3h-88.7v-2.7h88.4c.2,1,.2,1.7.2,2.7Z"/>
  </g>
  <path class="cls-1" d="M269,19.4h25.3v.2c-.7.5-1.7,1-2.4,1.2-2.4,1.2-4.4,2.9-4.9,5.6-.5,2.4-1,5.1-1,7.6v51.9c0,1,0,1.9.2,3.4.5-.5,1-.7,1.2-1.2,5.4-7.8,12.9-10,21.9-7.3,4.4,1.2,8.3,3.2,12.7,4.6,3.7,1.2,7.3,2.7,11,2.4,5.8-.5,10.7-2.9,14.1-8,.5-.7.7-1.9.7-2.7v-44.6c0-2.2-.5-4.6-1.2-6.8s-2.4-3.9-4.6-4.9c-1-.5-1.7-1-2.7-1.5,8.5-.7,17.3-.5,25.8-.2v.2c-.7.2-1.2.7-1.9,1-3.9,1.5-5.6,4.6-6.1,8.3-.2,2.4-.5,4.6-.5,7.1v101.1c0,2.7.2,5.4.7,8,.7,3.9,2.7,6.6,6.8,7.6.2,0,.7.2,1,.2l.5.5c-.7.2-1.2.5-1.7.5h-24.1c-.2,0-.5,0-1-.2.7-.5,1.2-.7,1.5-.7,4.4-1,6.3-4.4,6.8-8.5.2-2.2.5-4.6.5-6.8v-51.4c0-1,0-2.2-.2-2.9-1.5,1.2-3.2,2.7-4.6,4.1-2.4,2.7-5.6,3.9-9.3,4.6-3.9.7-7.8-.2-11.5-1.5-4.9-1.7-9.5-3.7-14.4-5.4-5.6-1.9-11.2-1.7-16.3,1.9s-3.4,2.9-4.6,4.4c-.7.7-1,2.2-1,3.4v45.6c0,2.9.5,5.6,1.7,8.3,1,2.2,2.7,3.2,4.6,3.9.7.2,1.2.5,1.9.7v.5h-26.1v-.2c.5-.2,1-.5,1.5-.7,4.6-1.2,6.3-4.6,6.8-9,.2-3.2.5-6.3.5-9.5V34.5c0-2.7-.5-5.6-1-8.3s-2.2-4.4-4.6-5.6c-.7-.5-1.7-.7-2.4-1.2.2.5.2.2.2,0Z"/>
  <path class="cls-1" d="M489.2,79.5c-.2,8.8-1.5,17.3-4.9,25.3-1.2,3.4-3.2,6.6-4.9,9.7-2.4,4.4-5.6,8.5-9.7,11.9-1.9,1.7-4.1,3.4-6.1,4.9-3.9,2.9-8.5,4.6-13.2,6.3-13.4,4.9-27,4.9-40.7.7-4.4-1.2-8.5-3.4-12.4-5.6-2.7-1.5-5.1-3.2-7.3-5.1-7.6-6.3-12.9-14.4-16.3-23.9-2.2-6.1-3.7-12.4-4.1-19-.7-8.3-.2-16.3,1.7-24.4,1.9-8.3,5.4-16.3,10.5-23.1,2.9-3.9,6.3-7.3,10.2-10.5,3.4-2.7,7.3-4.6,11.5-6.3,16.3-7.1,32.9-7.1,49.7-.7,3.7,1.2,7.1,3.2,10.2,5.4,4.6,2.9,9,6.8,12.4,11.2,7.1,9,11,19.7,12.7,30.9.5,4.1.5,8.3.7,12.2ZM479.7,78.8c0-8.3-1-16.3-3.4-24.1-2.2-6.8-5.1-13.2-9.5-18.8-3.2-3.9-6.8-7.6-11-10.2-3.4-2.2-7.1-4.4-11-5.6-11-3.7-21.9-3.2-32.9,1-3.9,1.5-7.8,3.2-11.2,5.8s-6.6,5.6-9.3,9c-4.4,5.8-7.3,12.2-9.5,19-2.2,7.3-3.4,14.6-3.7,22.2,0,7.6,1,14.9,2.7,21.9,2.2,8.5,5.6,16.3,11.2,23.1,3.7,4.4,8,8,12.9,11,4.1,2.7,8.8,4.1,13.4,5.4,2.7.7,5.8,1,8.8,1,5.1.2,10-.2,14.9-1.9,4.4-1.5,8.5-2.9,12.4-5.4,4.9-3.2,9-7.1,12.4-11.7,2.7-3.4,4.9-7.3,6.6-11.2,4.6-9.5,6.1-20,6.1-30.5Z"/>
  <path class="cls-1" d="M473.6,152.6v2.9h-88.9v-2.9h88.9Z"/>
</svg>